Coordinates
version=1
nRows=6
nColumns=32
inDegrees=yes

Units are S.I. units (second, meters, Newtons, ...)
Angles are in degrees.
endheader
time	lower_torso_RX	lower_torso_RY	lower_torso_RZ	lower_torso_TX	lower_torso_TY	lower_torso_TZ	lumbar_pitch	lumbar_roll	lumbar_yaw	hip_flex_r	hip_add_r	hip_rot_r	knee_flex_r	tib_pat_r_r3	tib_pat_r_tx	tib_pat_r_ty	tib_pat_r_tz	ankle_flex_r	subt_angle_r	toe_angle_r	hip_flex_l	hip_add_l	hip_rot_l	knee_flex_l	tib_pat_l_r3	tib_pat_l_tx	tib_pat_l_ty	tib_pat_l_tz	ankle_flex_l	subt_angle_l	toe_angle_l
4.17999999999999970000	3.67192916999999990000	-3.51405574999999980000	-19.36636263000000100000	0.04944774999999999900	0.68101661000000002000	-0.22001186000000000000	11.84288359000000000000	-3.14221840000000000000	8.98695466999999940000	40.95026706000000200000	-8.84657022999999930000	5.07037440000000040000	70.15647291000000500000	15.51851774244617000000	0.03232751212695531700	-0.01840325093480624200	0.00219691669626343640	-10.12052074000000000000	21.01559744000000100000	0.00000000000000000000	26.63681971999999800000	9.29318847000000050000	17.36803743000000100000	21.74329264000000000000	6.51294711986863820000	0.04174355342975130000	-0.01955178653425492000	-0.00214957326773124700	6.83116619000000020000	-4.29376197000000030000	0.00000000000000000000
4.19000000000000040000	3.62704542999999990000	-3.02685261000000020000	-19.18546488999999900000	0.05525361000000000200	0.68176915999999999000	-0.22052364999999999000	11.70566074000000100000	-2.96652358000000000000	8.20723216999999930000	42.56178168000000300000	-8.91446522999999940000	5.07654876999999960000	71.16602039000000000000	15.61891130132397400000	0.03206358062836064900	-0.01838332818205583300	0.00219691669626343640	-9.22150560999999950000	20.60485585000000000000	0.00000000000000000000	25.68854737999999900000	9.21557460000000010000	17.74511667000000200000	21.36245282000000100000	6.39931043931082490000	0.04180166644903642700	-0.01956559223669416400	-0.00214957326773124700	6.94217075999999980000	-3.94320322999999990000	0.00000000000000000000
4.20000000000000020000	3.60212280000000010000	-2.49358974999999990000	-18.98517971000000100000	0.06095410999999999900	0.68253675999999996000	-0.22100344999999999000	11.53952078000000000000	-2.78509427000000010000	7.32732429000000000000	44.16961688000000000000	-9.00888619999999920000	5.07089833000000030000	72.11673627999999800000	15.71088390999419500000	0.03181309556904621900	-0.01836630140141585000	0.00219691669626343640	-8.31340439999999960000	19.81805730000000000000	0.00000000000000000000	24.72081546000000100000	9.12987726000000070000	18.15671599999999900000	20.96566333000000200000	6.28001360135649560000	0.04186178331992720200	-0.01957996095046295900	-0.00214957326773124700	7.00953859000000000000	-3.55017144000000020000	0.00000000000000000000
4.21000000000000000000	3.60237571000000000000	-1.92838749000000000000	-18.76294546000000100000	0.06647466000000000500	0.68331412000000002000	-0.22145651999999999000	11.34817353999999900000	-2.60827936000000000000	6.36324713000000040000	45.76935235999999900000	-9.13371026999999990000	5.06974164000000020000	73.00366728999999600000	15.79445909473768600000	0.03157768712911550300	-0.01835205405739426600	0.00219691669626343640	-7.42283189000000030000	18.67735635000000000000	0.00000000000000000000	23.73824224000000200000	9.04027967999999940000	18.58709530999999900000	20.55527268000000200000	6.15565517127479560000	0.04192349750917022400	-0.01959480437865039600	-0.00214957326773124700	7.04080376000000020000	-3.13613681999999990000	0.00000000000000000000
4.21999999999999980000	3.62300974000000010000	-1.32821008000000010000	-18.51566254999999800000	0.07200331999999999600	0.68412552999999998000	-0.22185244000000001000	11.13518709000000100000	-2.44053821000000020000	5.33304359999999990000	47.32780807999999700000	-9.28559905999999910000	5.07653539000000010000	73.80661186000000400000	15.86828275447919600000	0.03136310235435148900	-0.01834061119561973200	0.00219691669626343640	-6.58136003999999990000	17.23975284999999900000	0.00000000000000000000	22.73075349999999900000	8.94467168000000080000	19.02903135000000000000	20.13706490999999900000	6.02790451975475160000	0.04198590056602871700	-0.01960991026105642100	-0.00214957326773124700	7.04541305999999960000	-2.71880269999999990000	0.00000000000000000000
4.23000000000000040000	3.65265049000000010000	-0.68433823000000005000	-18.23929087999999900000	0.07772624000000000200	0.68497578000000003000	-0.22217099000000001000	10.90313583999999900000	-2.28048608000000020000	4.25589515999999970000	48.79722593999999700000	-9.45619929000000070000	5.08395384000000040000	74.49212687000000700000	15.92993907198901300000	0.03117877700492656700	-0.01833199880381509000	0.00219691669626343640	-5.82240085000000020000	15.59177425999999900000	0.00000000000000000000	21.68148993999999900000	8.83586603000000000000	19.48384031999999900000	19.72018011000000100000	5.89950153419177250000	0.04204761545868882000	-0.01962494647142610400	-0.00214957326773124700	7.03303364000000020000	-2.30985022999999990000	0.00000000000000000000
